<svg id="Слой_1" data-name="Слой 1" xmlns="http://www.w3.org/2000/svg" viewBox="0 0 500 500"><defs><style>.cls-1{fill:#212121;}</style></defs><title>Монтажная область 1</title><path class="cls-1" d="M487,13H333.34V93.22H250V13H92.69V93.22H13v77.09H92.69V329.17H13v77.09H92.69V487h77.1V406.26H250V487h78.65V406.26h78.66V487H487V329.17H407.31V249.34H487v-79H407.31V93.22H487ZM350.89,215.41c-13.56,13.55-29.05,9.68-39,7.19l-3.59-.83c-10,9.41-76.91,76.63-85.76,86,.28,1.11.55,2.77.83,4.15,2.21,10.24,5.53,25.73-7.74,39a57.19,57.19,0,0,1-40.12,16,58.63,58.63,0,0,1-12.17-1.38c-.27,0-.27,0-.55-.28a1.35,1.35,0,0,1,0-1.94l24.9-24.89L162,312.78l-24.9,24.34a.94.94,0,0,1-.55.28,1.52,1.52,0,0,1-1.66-1.11,57.35,57.35,0,0,1,14.38-51.72c13.84-13.56,28.77-10,39-7.47,1.38.27,2.49.55,3.6.83,9.95-9.41,76.9-76.63,85.75-86-.28-1.1-.55-2.76-.83-4.14-2.21-10.24-5.53-25.73,7.75-39a58.44,58.44,0,0,1,52.28-14.38c.27,0,.27,0,.55.27a1.35,1.35,0,0,1,0,1.94l-24.9,24.9,25.73,25.72,24.9-24.34c.27-.28.83-.28,1.38-.28a1.24,1.24,0,0,1,.83,1.11A58.15,58.15,0,0,1,350.89,215.41Z"/></svg>