<svg xmlns="http://www.w3.org/2000/svg" viewBox="0 0 488.42 119"><defs><style>.cls-1{fill:#161616;}.cls-2{font-size:67px;font-family:Chava-Regular, Chava;}</style></defs><title>minecorp full logo monocolor</title><g id="Слой_2" data-name="Слой 2"><g id="Слой_1-2" data-name="Слой 1"><polygon class="cls-1" points="119 20.14 119 0 80.42 0 80.42 20.14 59.5 20.14 59.5 0 20.01 0 20.01 20.14 0 20.14 0 39.49 20.01 39.49 20.01 79.38 0 79.38 0 98.73 20.01 98.73 20.01 119 39.36 119 39.36 98.73 59.5 98.73 59.5 119 79.25 119 79.25 98.73 99.01 98.73 99.01 119 119 119 119 79.38 98.99 79.38 98.99 59.33 119 59.33 119 39.49 98.99 39.49 98.99 20.14 119 20.14"/><text class="cls-2" transform="translate(134.67 79.8)">MINECORP</text></g></g></svg>